<?xml version="1.0" encoding="UTF-8"?>
<svg id="Layer_1" data-name="Layer 1" xmlns="http://www.w3.org/2000/svg" viewBox="0 0 666.27 912.49">
  <defs>
    <style>
      .cls-1 {
        fill: #f8f4c5;
      }

      .cls-2 {
        fill: #eae7c5;
      }

      .cls-3 {
        fill: #173e81;
      }

      .cls-4 {
        fill: #004f98;
      }

      .cls-5 {
        fill: #ffc600;
      }

      .cls-6 {
        fill: #0072c5;
      }

      .cls-7 {
        fill: #0096f3;
      }

      .cls-8 {
        fill: #f5a800;
      }

      .cls-9 {
        fill: #00b9ff;
      }

      .cls-10 {
        fill: none;
        opacity: .2;
      }

      .cls-11 {
        fill: #def7ff;
      }

      .cls-12 {
        fill: #f7f3dc;
      }
    </style>
  </defs>
  <path class="cls-11" d="m627.12,397.89H39.15c1.16-3.59,2.37-7.18,3.62-10.75.82-2.35,1.7-4.79,2.66-7.37.59-1.59,1.21-3.22,1.86-4.92,3.09-8.04,6.43-16.08,9.94-23.92.61-1.36,1.22-2.72,1.85-4.08C133.95,183.42,298.91,52.59,333.13,26.65c33.83,25.65,195.51,153.85,271.47,314.68.36.75.71,1.49,1.06,2.24,1.68,3.58,3.37,7.33,5.05,11.16.44,1.01.88,2.03,1.32,3.05.68,1.57,1.34,3.12,1.99,4.69,2.77,6.64,5.37,13.27,7.72,19.75,1.9,5.23,3.7,10.46,5.38,15.67Z"/>
  <g>
    <path class="cls-4" d="m644.75,501.54v44.25H21.52v-43.9c.1-11.96.93-24.15,2.45-36.3.64-5.25,1.4-10.34,2.25-15.21.02-.13.04-.26.07-.39,1.86-10.95,4.3-22.08,7.25-33.08,1.69-6.32,3.56-12.67,5.61-19.02,1.16-3.59,2.37-7.18,3.62-10.75.82-2.35,1.7-4.79,2.66-7.37.59-1.59,1.21-3.22,1.86-4.92,3.09-8.04,6.43-16.08,9.94-23.92.61-1.36,1.22-2.72,1.85-4.08,2.04.03,4.12.04,6.24.04,118.44,0,118.44-41.93,236.88-41.93s118.5,41.93,236.96,41.93c27.05,0,47.92-2.19,65.44-5.56.36.75.71,1.49,1.06,2.24,1.68,3.58,3.37,7.33,5.05,11.16.44,1.01.88,2.03,1.32,3.05.68,1.57,1.34,3.12,1.99,4.69,2.77,6.64,5.37,13.27,7.72,19.75,1.9,5.23,3.7,10.46,5.38,15.67,4.36,13.58,7.93,27.07,10.65,40.29.08.38.16.77.23,1.16h0c.73,3.6,1.44,7.4,2.1,11.33,1.59,9.19,2.76,18.42,3.52,27.45.42,4.8.73,9.79.93,14.84,0,.12.01.25.01.37.1,2.78.15,5.54.19,8.21Z"/>
    <path class="cls-6" d="m644.75,501.54v91.4H21.52v-91.05c.1-11.96.93-24.15,2.45-36.3.64-5.25,1.4-10.34,2.25-15.21.02-.13.04-.26.07-.39,1.86-10.95,4.3-22.08,7.25-33.08,1.69-6.32,3.56-12.67,5.61-19.02,1.16-3.59,2.37-7.18,3.62-10.75.82-2.35,1.7-4.79,2.66-7.37,37.72-12.15,65.95-27.67,138-27.67,118.48,0,118.48,41.93,236.97,41.93,100.45,0,115.73-30.15,190.31-39.3.44,1.01.88,2.03,1.32,3.05.68,1.57,1.34,3.12,1.99,4.69,2.77,6.64,5.37,13.27,7.72,19.75,1.9,5.23,3.7,10.46,5.38,15.67,4.36,13.58,7.93,27.07,10.65,40.29.08.38.16.77.23,1.16h0c.73,3.6,1.44,7.4,2.1,11.33,1.59,9.19,2.76,18.42,3.52,27.45.42,4.8.73,9.79.93,14.84,0,.12.01.25.01.37.1,2.78.15,5.54.19,8.21Z"/>
    <rect class="cls-7" x="587.12" y="634.18" width=".43" height="11.92"/>
    <path class="cls-7" d="m644.75,501.54v107.81c-68.26,5.58-88.19,15.43-187.03,15.43-122.44,0-124.93-6.55-247.34-6.55-101.85,0-115.99,9.97-188.86,14.93v-131.27c.1-11.96.93-24.15,2.45-36.3.64-5.25,1.4-10.34,2.25-15.21.02-.13.04-.26.07-.39,12.55,1.41,26.78,2.23,43.31,2.23,118.46,0,118.46-41.94,236.9-41.94s118.48,41.94,236.96,41.94c43.64,0,71.2-5.69,94.54-12.87.73,3.59,1.44,7.39,2.1,11.32,1.59,9.19,2.76,18.42,3.52,27.45.42,4.8.73,9.79.93,14.84,0,.12.01.25.01.37.1,2.78.15,5.54.19,8.21Z"/>
    <rect class="cls-9" x="587.12" y="634.18" width=".43" height="11.92"/>
    <path class="cls-9" d="m644.75,501.54v107.81c-68.26,5.58-88.19,15.43-187.03,15.43-122.44,0-124.93-6.55-247.34-6.55-101.85,0-115.99,9.97-188.86,14.93v-114.71c79.79-5.55,93.16-26.91,196.26-26.91,118.46,0,118.46,28.21,236.96,28.21,100.24,0,115.67-20.21,189.82-26.42.1,2.78.15,5.54.19,8.21Z"/>
  </g>
  <g>
    <path class="cls-8" d="m339.78,169.45c-89.37,0-162.54,69.4-168.49,157.25,5.77-1.97,11.4-3.99,17.07-5.97,5.47-1.94,10.98-3.85,16.74-5.69,15.85-5.06,33.46-9.49,56.72-11.94,6.05-.63,12.49-1.12,19.37-1.47,6.8-.33,14.04-.51,21.78-.51,1.41,0,2.8,0,4.17.03,5.69.03,11.11.18,16.28.41,2.63.13,5.21.26,7.71.43,4.98.33,9.71.74,14.22,1.24,1.47.17,2.91.33,4.33.5,4.68.58,9.13,1.24,13.38,1.97,6.24,1.07,12.02,2.3,17.52,3.62,5.34,1.29,10.39,2.7,15.23,4.15h.02c20.46,6.19,37.53,13.58,58.95,19.42h.03c10.97,3.01,23.07,5.59,37.4,7.41,5.18.66,10.64,1.21,16.44,1.64.02-1.19.03-2.4.03-3.59,0-93.29-75.62-168.89-168.89-168.89Z"/>
    <path class="cls-1" d="m339.78,185.91c-78.23,0-142.71,58.93-151.42,134.82,5.47-1.94,10.98-3.85,16.74-5.69,15.85-5.06,33.46-9.49,56.72-11.94,6.05-.63,12.49-1.12,19.37-1.47,6.8-.33,14.04-.51,21.78-.51,1.41,0,2.8,0,4.17.03,5.69.03,11.11.18,16.28.41,2.63.13,5.21.26,7.71.43,4.98.33,9.71.74,14.22,1.24,1.47.17,2.91.33,4.33.5,4.68.58,9.13,1.24,13.38,1.97,6.24,1.07,12.02,2.3,17.52,3.62,5.34,1.29,10.39,2.7,15.23,4.15h.02c20.46,6.19,37.53,13.58,58.95,19.42h.03c10.97,3.01,23.07,5.59,37.4,7.41.02-.64.02-1.31.02-1.95,0-84.19-68.24-152.43-152.43-152.43Z"/>
    <g class="cls-10">
      <path class="cls-5" d="m453.33,272.45l-72.76,36.87c-5.49-1.32-11.28-2.55-17.52-3.62l48.68-74.43c1.29-2,3.9-2.56,5.92-1.32,20.66,12.67,32.53,28.55,37.36,36.06,1.46,2.23.66,5.26-1.69,6.45Z"/>
      <path class="cls-5" d="m403.41,227.19l-51.94,75.01c-.5.73-1.12,1.22-1.8,1.52-1.42-.17-2.86-.33-4.33-.5-1.08-.78-1.82-2.07-1.79-3.71l1.97-87.36c.05-2.51,2.15-4.48,4.63-4.35,24.4,1.32,43.2,8.85,51.52,12.77,2.48,1.17,3.31,4.33,1.74,6.62Z"/>
      <path class="cls-5" d="m333.89,212.37l-2.15,87.36c-.02.86-.25,1.62-.63,2.25-2.5-.17-5.08-.3-7.71-.43l-46.48-73.97c-1.41-2.25-.58-5.26,1.77-6.43,18.59-9.26,40.75-12.36,50.41-13.31,2.61-.26,4.85,1.85,4.78,4.53Z"/>
      <path class="cls-5" d="m307.13,301.14c-1.37-.03-2.76-.03-4.17-.03-7.74,0-14.99.18-21.78.51l-52.58-28.2c-2.35-1.26-3.04-4.35-1.52-6.55,12.47-18.01,26.15-28.5,32.62-32.85,2.03-1.36,4.78-.78,6.09,1.32l41.35,65.8Z"/>
      <path class="cls-5" d="m261.81,303.1c-23.26,2.45-40.87,6.88-56.72,11.94,2.66-14.49,7.53-26.18,10.24-31.94,1.01-2.15,3.57-3.01,5.66-1.9l40.82,21.9Z"/>
      <path class="cls-5" d="m478.3,328.39c.07,2.38-1.84,4.37-4.17,4.38l-19.34.12h-.03c-21.42-5.84-38.49-13.23-58.95-19.42l63.78-32.35c2.03-1.03,4.52-.23,5.57,1.84,3.97,7.74,12.57,26.58,13.13,45.44Z"/>
    </g>
  </g>
  <g>
    <path class="cls-3" d="m.02,794.12h23.11c15.37,0,26.39,4.66,26.39,18.55v2.97c0,6.89-3.5,13.04-8.59,15.47,5.72,2.54,9.65,8.9,9.65,16v2.86c0,13.36-11.13,19.08-27.45,19.08h-13.04s-10.07-.11-10.07-6.04v-68.9Zm11.55,8.9v23.64h12.4c10.39,0,13.99-4.35,13.99-12.61s-4.77-11.02-14.84-11.02h-11.55Zm0,32.54v24.59h11.55c11.13,0,15.9-3.28,15.9-11.76s-4.56-12.83-15.05-12.83h-12.4Z"/>
    <path class="cls-3" d="m94.25,831.12c0-4.66-2.23-8.27-11.23-8.27s-16.75,3.5-16.75,11.66c-2.54-3.5-3.5-6.47-3.5-9.01,0-8.27,10.81-11.45,20.25-11.45,14.52,0,22.36,6.47,22.36,17.59v38.26c-2.65-1.17-5.19-1.48-7.63-1.48-5.09,0-9.96,1.91-15.9,1.91-10.28,0-20.56-4.03-20.56-16.11,0-20.14,28.94-13.89,32.96-23.11Zm.32,9.54c-2.23,6.36-22.26,2.54-22.26,13.57,0,4.66,3.5,7.95,11.13,7.95,6.68,0,11.13-2.44,11.13-2.44v-19.08Z"/>
    <path class="cls-3" d="m118.53,803.88c2.44,0,11.13.21,11.13,9.43v4.03h21.83s-.11,8.9-6.57,8.9h-15.26v23.32c0,7.31,2.33,11.87,10.49,11.87,6.78,0,13.04-3.29,13.04-11.13,2.44,3.07,3.71,5.83,3.71,8.58,0,6.89-7.42,11.45-18.12,11.45-12.61,0-20.24-6.57-20.24-17.81v-48.65Z"/>
    <path class="cls-3" d="m175.23,824.65v45.15s-11.13,0-11.13-6.15v-49.29c2.76,1.38,5.19,1.91,7.31,1.91,4.56,0,8.69-2.23,14.73-2.23,7.42,0,13.36,2.76,13.36,9.22,0,3.92-2.44,7-3.92,9.01,0-6.25-5.19-9.11-11.34-9.11-4.56,0-9.01,1.48-9.01,1.48Z"/>
    <path class="cls-3" d="m251.66,852.53c0,11.13-7.74,17.81-24.27,17.81s-24.17-6.68-24.17-17.81v-20.67c0-11.13,7.74-17.81,24.17-17.81s24.27,6.68,24.27,17.81v20.67Zm-11.13-19.08c0-6.89-2.23-10.92-13.14-10.92s-13.04,4.03-13.04,10.92v17.49c0,6.89,2.23,10.92,13.04,10.92s13.14-4.03,13.14-10.92v-17.49Z"/>
    <path class="cls-3" d="m275.51,852.1c0,6.04,2.97,9.54,11.45,9.54,6.57,0,11.45-1.8,11.45-1.8v-45.26s11.13,0,11.13,6.04v49.39c-1.27-.64-4.45-1.91-8.27-1.91-5.09,0-9.86,2.23-15.79,2.23-10.28,0-21.09-3.5-21.09-16.64v-39.11s11.13.11,11.13,6.04v31.48Z"/>
    <path class="cls-3" d="m357.34,832.28c0-6.04-3.07-9.54-11.55-9.54-6.57,0-11.34,1.8-11.34,1.8v45.26s-11.13,0-11.13-6.04v-49.5c1.17.64,4.45,2.01,8.16,2.01,5.19,0,9.96-2.23,15.79-2.23,10.28,0,21.2,3.5,21.2,16.64v39.11s-11.13-.21-11.13-6.04v-31.48Z"/>
    <path class="cls-3" d="m410.08,836.73c0-11.16,8.6-15.12,18.08-15.12,6.72,0,21.1,1.21,15.73,11.63,0-6.45-10.35-7.86-15.73-7.86-8.13,0-14.18,3.23-14.18,12.3v16.06c0,9.14,5.71,12.37,13.85,12.37s13.85-2.89,13.85-12.03v-4.77h-10.22c-3.09,0-3.29-4.3-3.29-4.3,0,0,1.61.67,4.3.67h13.04v9.41c0,11.22-8.27,14.79-17.68,14.79s-17.74-3.9-17.74-15.12v-18.01Z"/>
    <path class="cls-3" d="m484.83,858.85c0,3.23.81,7.59,9.01,7.59,5.65,0,8.87-1.68,8.87-1.68v-29.37s3.7,0,3.7,2.96v31.05c-1.21-.54-2.35-.67-3.63-.67-2.49,0-5.98,1.14-9.21,1.14-5.51,0-12.43-2.08-12.43-9.68v-24.8s3.7.07,3.7,2.96v20.5Z"/>
    <path class="cls-3" d="m541.76,823.69h3.5c.6,0,.74.54.74.94v3.7h-3.5c-.4,0-.74-.47-.74-.87v-3.76Zm.27,11.69c.4,0,3.7.13,3.7,2.96v31.19s-3.7,0-3.7-2.96v-31.19Z"/>
    <path class="cls-3" d="m602.26,819.32c.6,0,3.7-.07,3.7,3.56v46.51c-1.21-.47-2.42-.67-3.56-.67-2.76,0-6.12,1.14-9.48,1.14-7.73,0-12.23-4.03-12.23-10.22v-14.38c0-6.38,5.04-10.15,10.96-10.15,9.41,0,11.36,4.17,11.36,4.17,0,0-.74-1.28-.74-7.06v-12.9Zm0,26.28c0-4.17-4.91-6.99-9.75-6.99s-8.13,2.35-8.13,7.66v12.37c0,5.17,2.35,7.73,9.74,7.73,4.97,0,8.13-1.61,8.13-1.61v-19.16Z"/>
    <path class="cls-3" d="m666.25,863.15c0,4.64-6.65,6.72-12.64,6.72-7.73,0-12.7-3.83-12.7-10.42v-13.98c0-6.52,4.37-10.42,12.37-10.42s12.64,3.9,12.64,9.74c0,5.31-3.63,9.41-12.97,9.41-4.37,0-8.33-1.75-8.33-1.75v5.98c0,5.04,2.15,7.8,9.01,7.8,6.12,0,11.09-2.42,11.09-7.39,1.14,1.61,1.55,3.02,1.55,4.3Zm-21.64-14.11c-.27.13,4.64,1.55,8,1.55,7.13,0,9.61-2.22,9.61-5.78s-2.22-6.25-8.8-6.25c-7.12,0-8.8,2.96-8.8,7.93v2.55Z"/>
  </g>
  <path class="cls-12" d="m666.26,619.88h0v-1.5c0,.5,0,1,0,1.5Z"/>
  <rect class="cls-12" x="587.12" y="634.18" width=".43" height="11.92"/>
  <rect class="cls-12" x="0" y="658.52" width=".01" height="10.95"/>
  <rect class="cls-12" x="0" y="762.92" width="666.25" height="5.97"/>
  <rect class="cls-12" x="666.25" y="658.52" width="0" height="10.95"/>
  <g>
    <path class="cls-2" d="m666.25,658.52v-.97h-123.62v11.92h123.63v11.45h-168.12v11.93h168.12v13.38h-212.62v11.92h212.62v13.38H0v-13.38h212.61v-11.92H0v-13.38h168.12v-11.93H0v-11.45h123.2v-11.92H.02v.97h-.01v-24.14h.01v11.72h78.69v-11.92H21.52v-1.02c72.87-4.96,87.01-14.93,188.86-14.93,122.41,0,124.9,6.55,247.34,6.55,98.84,0,118.77-9.85,187.03-15.43v24.83h-57.63v11.92h79.13v-11.13h0v23.55h0Z"/>
    <polygon class="cls-2" points="0 634.38 0 658.52 .02 658.52 .02 669.47 0 669.47 0 634.18 .02 634.18 .02 634.38 0 634.38"/>
    <polygon class="cls-2" points=".02 658.52 .02 669.47 0 669.47 0 683.94 0 683.94 0 658.52 .02 658.52"/>
    <rect class="cls-2" y="683.94" width="0" height="25.43"/>
    <rect class="cls-2" y="709.45" width="0" height="25.42"/>
    <rect class="cls-2" y="737.49" width="0" height="25.43"/>
  </g>
  <polygon class="cls-2" points="666.27 634.18 666.27 669.47 666.25 669.47 666.25 658.52 666.26 658.52 666.26 634.97 666.24 634.97 666.24 634.18 666.27 634.18"/>
  <polygon class="cls-2" points="666.27 658.52 666.27 683.94 666.26 683.94 666.26 669.47 666.25 669.47 666.25 658.52 666.27 658.52"/>
  <rect class="cls-2" x="666.26" y="683.94" width=".01" height="25.43"/>
  <rect class="cls-2" x="666.26" y="709.45" width=".01" height="25.42"/>
  <rect class="cls-2" x="0" y="743.46" width="666.25" height="19.46"/>
  <rect class="cls-2" x="666.26" y="737.49" width=".01" height="25.43"/>
  <rect class="cls-3" x="666.26" y="731.53" width=".01" height="11.93"/>
  <rect class="cls-3" x="453.64" y="706.23" width="212.62" height="11.92"/>
  <rect class="cls-3" x="666.26" y="706.23" width=".01" height="11.92"/>
  <rect class="cls-3" x="498.14" y="680.92" width="168.12" height="11.93"/>
  <rect class="cls-3" x="666.26" y="680.92" width=".01" height="11.93"/>
  <rect class="cls-3" x="542.63" y="657.55" width="123.62" height="11.92"/>
  <rect class="cls-3" x="587.12" y="634.18" width=".43" height="11.92"/>
  <rect class="cls-3" x="666.24" y="634.18" width=".01" height=".79"/>
  <rect class="cls-3" x=".02" y="657.55" width="123.19" height="11.92"/>
  <path class="cls-3" d="m666.27,504.57l-.02,113.81v1.5h-.01v15.09h.01v11.13h-78.7v-11.92h57.2v-132.64c-.04-2.67-.09-5.43-.19-8.21,0-.12-.01-.25-.01-.37-.2-5.05-.51-10.04-.93-14.84-.76-9.03-1.93-18.26-3.52-27.45-.66-3.93-1.37-7.73-2.1-11.32h0c-.07-.4-.15-.79-.23-1.17-2.72-13.22-6.29-26.71-10.65-40.29-1.68-5.21-3.48-10.44-5.38-15.67-2.35-6.48-4.95-13.11-7.72-19.75-.65-1.57-1.31-3.12-1.99-4.69-.44-1.02-.88-2.04-1.32-3.05-1.68-3.83-3.37-7.58-5.05-11.16-.35-.75-.7-1.49-1.06-2.24C528.64,180.5,366.96,52.3,333.13,26.65c-34.22,25.94-199.18,156.77-274.05,320.2-.63,1.36-1.24,2.72-1.85,4.08-3.51,7.84-6.85,15.88-9.94,23.92-.65,1.7-1.27,3.33-1.86,4.92-.96,2.58-1.84,5.02-2.66,7.37-1.25,3.57-2.46,7.16-3.62,10.75-2.05,6.35-3.92,12.7-5.61,19.02-2.95,11-5.39,22.13-7.25,33.08-.03.13-.05.26-.07.39-.85,4.87-1.61,9.96-2.25,15.21-1.52,12.15-2.35,24.34-2.45,36.3v132.29h57.19v11.92H.02v-11.92l-.02-129.61c0-13.7.89-27.7,2.63-41.63.69-5.59,1.49-11.03,2.4-16.19,1.97-11.7,4.58-23.64,7.74-35.42,2.79-10.42,6.05-20.95,9.71-31.29,1.39-3.97,2.94-8.2,4.73-12.9.18-.5.38-.98.58-1.47,3.07-7.91,6.37-15.83,9.82-23.52,44.31-99.06,120.61-185.6,176.82-240.74C275.18,41.8,324.78,5.99,326.86,4.5l6.27-4.5,6.27,4.5c2.04,1.45,50.32,36.3,109.99,94.51,55.18,53.82,130.45,138.37,175.76,235.46,2.21,4.73,4.45,9.73,6.65,14.84.71,1.64,1.39,3.26,2.06,4.88,1.61,3.84,3.16,7.69,4.63,11.51,1.21,3.08,2.37,6.14,3.46,9.16,7.23,19.83,12.92,39.68,16.89,58.98.86,4.19,1.69,8.62,2.46,13.2,1.67,9.81,2.93,19.65,3.74,29.25.45,5.09.78,10.45.99,15.86.15,4.25.24,8.43.24,12.42Z"/>
  <rect class="cls-3" x="0" y="731.53" width="666.25" height="11.93"/>
  <rect class="cls-3" y="731.53" width="0" height="11.93"/>
  <rect class="cls-3" x="0" y="706.23" width="212.61" height="11.92"/>
  <rect class="cls-3" y="706.23" width="0" height="11.92"/>
  <rect class="cls-3" x="0" y="680.92" width="168.12" height="11.93"/>
  <rect class="cls-3" y="680.92" width="0" height="11.93"/>
  <rect class="cls-3" x=".03" y="762.92" width="666.24" height="5.97"/>
  <polygon class="cls-3" points="316.77 906.52 294.85 906.52 .02 906.52 .02 912.49 294.85 912.49 316.77 912.49 666.27 912.49 666.27 906.52 316.77 906.52"/>
  <rect class="cls-3" x="666.24" y="619.88" width=".01" height="15.09"/>
</svg>